<?xml version="1.0" encoding="UTF-8" standalone="no"?>
<!-- Created with Inkscape (http://www.inkscape.org/) -->

<svg
   width="222.34662mm"
   height="41.828888mm"
   viewBox="0 0 222.34662 41.828888"
   version="1.1"
   id="svg1"
   xmlns="http://www.w3.org/2000/svg">
  <defs
     id="defs1" />
  <g
     id="layer1"
     transform="translate(39.952078,-41.275003)">
    <path
       id="path1-37-2"
       style="fill:#4154fa;fill-opacity:1;stroke-width:1.22449;stroke-dasharray:none"
       d="m -37.530199,62.33096 a 8.613123,8.613123 0 0 0 0.2048,12.18046 8.613123,8.613123 0 0 0 12.17869,-0.20634 8.613123,8.613123 0 0 0 0.32071,-0.38493 l 0.0269,0.0278 11.03666,-11.41411 a 14.8719,14.82469 44.036817 0 0 4.49778,10.07252 14.8719,14.82469 44.036817 0 0 20.99769,-0.31923 14.8719,14.82469 44.036817 0 0 -0.3885,-20.9948 14.8719,14.82469 44.036817 0 0 -20.99432,0.31923 14.8719,14.82469 44.036817 0 0 -0.84189,1.00509 l -12.662,13.09507 a 8.613123,8.613123 0 0 0 -2.19908,-3.58303 8.613123,8.613123 0 0 0 -12.17879,0.20311 z m 3.21575,3.10944 a 4.1396404,4.1396404 0 0 1 5.85361,-0.0967 4.1396404,4.1396404 0 0 1 0.52722,5.31215 l -0.12958,0.13415 0.0134,0.0139 a 4.1396404,4.1396404 0 0 1 -0.31308,0.3928 4.1396404,4.1396404 0 0 1 -5.85351,0.1 4.1396404,4.1396404 0 0 1 -0.0984,-5.8553 z m 27.92234,-10.52801 0.15284,-0.15822 a 10.245087,10.339513 44.036817 0 1 14.46753,-0.23829 10.245087,10.339513 44.036817 0 1 0.18043,14.55474 10.245087,10.339513 44.036817 0 1 -14.55422,0.31042 10.245087,10.339513 44.036817 0 1 -0.24663,-14.46903 z" />
    <g
       id="text243-7"
       style="font-weight:bold;font-size:25.2302px;font-family:'Open Sans';-inkscape-font-specification:'Open Sans Bold';letter-spacing:-0.0162216px;stroke-width:0.860124"
       transform="scale(1.0216311,0.9788269)"
       aria-label="Průmyslovka&#10;Liberec">
      <path
         style="-inkscape-font-specification:'Instrument Sans Bold'"
         d="M 25.850258,61.74646 V 43.580716 h 8.628728 q 2.018416,0 3.456538,0.706446 1.463351,0.706445 2.245488,1.967955 0.807366,1.26151 0.807366,2.951934 0,1.690423 -0.807366,2.977163 -0.807367,1.28674 -2.270718,2.018416 -1.438122,0.706446 -3.431308,0.706446 h -5.550644 v -2.977164 h 5.348803 q 1.3372,0 2.068876,-0.731676 0.756906,-0.756906 0.756906,-1.967955 0,-1.21105 -0.756906,-1.942726 -0.731676,-0.731675 -2.068876,-0.731675 h -4.541436 v 15.18858 z m 17.190797,0 V 48.879058 h 3.708839 v 3.027624 h 0.07569 v 9.839778 z m 3.78453,-6.711233 -0.327993,-3.052854 q 0.454144,-1.639963 1.488582,-2.49779 1.034438,-0.857827 2.57348,-0.857827 0.479374,0 0.706446,0.100921 v 3.532228 q -0.126151,-0.05046 -0.353223,-0.05046 -0.227072,-0.02523 -0.555064,-0.02523 -1.816575,0 -2.674402,0.655985 -0.857826,0.630755 -0.857826,2.195028 z m 10.277739,6.963535 q -1.362431,0 -2.346409,-0.580295 -0.958747,-0.605524 -1.463351,-1.589502 -0.504604,-1.009208 -0.504604,-2.245488 v -8.704419 h 3.78453 v 7.972743 q 0,1.059669 0.529834,1.589503 0.529834,0.529834 1.488582,0.529834 0.857826,0 1.513812,-0.403683 0.655985,-0.403683 1.034438,-1.110129 0.403683,-0.731676 0.403683,-1.665193 l 0.327993,3.103314 q -0.630755,1.387661 -1.841805,2.245488 -1.21105,0.857827 -2.926703,0.857827 z M 61.61953,61.74646 v -3.027624 h -0.07569 v -9.839778 h 3.78453 V 61.74646 Z M 59.14697,47.592318 q -1.160589,0 -1.942725,-0.782136 -0.782137,-0.807367 -0.782137,-1.942726 0,-1.110129 0.782137,-1.892265 0.782136,-0.807366 1.942725,-0.807366 1.160589,0 1.917495,0.807366 0.782136,0.782136 0.782136,1.892265 0,1.135359 -0.782136,1.942726 -0.756906,0.782136 -1.917495,0.782136 z m 0,-1.867035 q 0.353223,0 0.580295,-0.252302 0.227071,-0.252302 0.227071,-0.605525 0,-0.353223 -0.227071,-0.580294 -0.227072,-0.252302 -0.580295,-0.252302 -0.378453,0 -0.605525,0.252302 -0.227072,0.227071 -0.227072,0.580294 0,0.353223 0.227072,0.605525 0.227072,0.252302 0.605525,0.252302 z M 68.339772,61.74646 V 48.879058 h 3.70884 v 3.027624 h 0.07569 v 9.839778 z m 8.653959,0 v -8.174585 q 0,-0.983978 -0.529835,-1.438121 -0.504604,-0.479374 -1.438121,-0.479374 -0.807366,0 -1.488582,0.378453 -0.655985,0.353223 -1.034438,1.034438 -0.378453,0.655985 -0.378453,1.564273 L 71.79631,51.730071 q 0.630755,-1.412892 1.816574,-2.245488 1.21105,-0.857827 2.901473,-0.857827 2.018416,0 3.128545,1.135359 1.135359,1.135359 1.135359,2.851013 v 9.133332 z m 8.653958,0 v -8.174585 q 0,-0.983978 -0.529834,-1.438121 -0.504604,-0.479374 -1.438121,-0.479374 -0.807367,0 -1.488582,0.378453 -0.655985,0.353223 -1.034438,1.034438 -0.378453,0.655985 -0.378453,1.564273 l -0.580295,-2.901473 q 0.630755,-1.412892 1.867035,-2.245488 1.26151,-0.857827 3.027624,-0.857827 2.094106,0 3.204235,1.185819 1.135359,1.16059 1.135359,3.052855 v 8.88103 z m 6.770725,5.172191 3.557459,-7.871822 0.655985,-1.084899 3.330386,-9.082872 h 4.036836 l -7.796136,18.039593 z m 2.724862,-5.424493 -4.945119,-12.6151 h 4.087292 l 4.062062,11.504971 z m 15.121894,0.504604 q -2.82578,0 -4.49097,-1.135359 -1.6652,-1.135359 -1.81658,-3.128545 h 3.38085 q 0.12615,0.857827 0.85782,1.311971 0.75691,0.428913 2.06888,0.428913 1.18582,0 1.71565,-0.327993 0.55507,-0.353222 0.55507,-0.983977 0,-0.479374 -0.32799,-0.731676 -0.30277,-0.277532 -1.13536,-0.454144 l -2.06888,-0.428913 q -2.29595,-0.479374 -3.38085,-1.438122 -1.08489,-0.983977 -1.08489,-2.52302 0,-1.867034 1.43812,-2.901473 1.43812,-1.059668 4.0116,-1.059668 2.54825,0 4.06206,1.034438 1.51381,1.009208 1.66519,2.825783 h -3.38084 q -0.10092,-0.655986 -0.70645,-0.983978 -0.60552,-0.353223 -1.71565,-0.353223 -1.00921,0 -1.51381,0.302762 -0.47938,0.277533 -0.47938,0.807367 0,0.454143 0.40369,0.731676 0.40368,0.252302 1.3372,0.454143 l 2.32117,0.479374 q 1.94273,0.403683 2.92671,1.513812 1.00921,1.084899 1.00921,2.57348 0,1.892265 -1.48859,2.951934 -1.46335,1.034438 -4.16298,1.034438 z m 7.50237,-0.252302 V 43.580716 h 3.78453 V 61.74646 Z m 12.90165,0.252302 q -2.11933,0 -3.73407,-0.832597 -1.5895,-0.857826 -2.49779,-2.371638 -0.88305,-1.539043 -0.88305,-3.532228 0,-1.993186 0.88305,-3.481768 0.90829,-1.488582 2.49779,-2.321178 1.61474,-0.832597 3.73407,-0.832597 2.14457,0 3.73407,0.832597 1.61474,0.832596 2.49779,2.321178 0.88306,1.488582 0.88306,3.481768 0,1.993185 -0.90829,3.532228 -0.88305,1.513812 -2.49779,2.371638 -1.5895,0.832597 -3.70884,0.832597 z m 0,-2.977164 q 0.88306,0 1.58951,-0.454143 0.73167,-0.454144 1.16059,-1.28674 0.42891,-0.857827 0.42891,-2.043647 0,-1.740883 -0.93352,-2.674401 -0.90829,-0.958747 -2.24549,-0.958747 -1.3372,0 -2.27071,0.958747 -0.90829,0.958748 -0.90829,2.674401 0,1.18582 0.42891,2.043647 0.42892,0.832596 1.13536,1.28674 0.73168,0.454143 1.61473,0.454143 z m 12.22041,2.724862 -5.07127,-12.867402 h 4.06206 l 3.96114,12.009575 h -2.11934 l 3.93592,-12.009575 h 3.96114 l -5.07127,12.867402 z m 10.17676,0 V 43.580716 h 3.78453 V 61.74646 Z m 8.25028,0 -5.34881,-6.686003 5.22266,-6.181399 h 4.36482 l -6.13094,6.761694 0.17661,-1.18582 6.20663,7.291528 z m 13.43151,0 q -0.15138,-0.555064 -0.22707,-1.185819 -0.0505,-0.630755 -0.0505,-1.463352 h -0.10092 v -6.080478 q 0,-0.782136 -0.52984,-1.21105 -0.5046,-0.454143 -1.51381,-0.454143 -0.95875,0 -1.53904,0.327992 -0.55507,0.327993 -0.73168,0.958748 h -3.60792 q 0.25231,-1.740884 1.79135,-2.876243 1.53904,-1.135359 4.21344,-1.135359 2.77532,0 4.23867,1.23628 1.46336,1.23628 1.46336,3.557458 v 5.676795 q 0,0.630755 0.0757,1.28674 0.10092,0.630755 0.30276,1.362431 z m -4.49098,0.252302 q -1.91749,0 -3.05285,-0.958748 -1.13536,-0.983977 -1.13536,-2.59871 0,-1.791344 1.3372,-2.876243 1.36243,-1.110129 3.78453,-1.438121 l 3.7593,-0.529835 v 2.195028 l -3.12854,0.479374 q -1.00921,0.151381 -1.48859,0.555064 -0.47937,0.403683 -0.47937,1.110129 0,0.630755 0.45414,0.958747 0.45415,0.327993 1.21105,0.327993 1.18582,0 2.01842,-0.630755 0.8326,-0.655985 0.8326,-1.513812 l 0.35322,2.018416 q -0.55507,1.438121 -1.69042,2.169797 -1.13536,0.731676 -2.77533,0.731676 z"
         id="path1" />
      <path
         style="-inkscape-font-specification:'Instrument Sans Bold'"
         d="M 25.97288,84.649215 V 66.483471 h 3.885451 v 18.165744 z m 1.816575,0 V 81.672051 H 38.58798 v 2.977164 z m 12.649317,0 V 71.781813 h 3.78453 V 84.649215 Z M 40.312621,70.066159 v -4.087292 h 4.036832 v 4.087292 z m 14.768688,14.835358 q -1.841804,0 -3.002393,-0.857827 -1.135359,-0.857827 -1.337201,-2.346408 l 0.201842,-0.02523 v 2.977164 h -3.70884 V 66.483471 h 3.78453 v 8.149355 l -0.227072,-0.05046 q 0.277533,-1.412891 1.463352,-2.220257 1.21105,-0.832597 3.027624,-0.832597 1.740884,0 3.002394,0.832597 1.28674,0.807366 1.967955,2.295948 0.706446,1.488582 0.706446,3.506998 0,2.043646 -0.731676,3.557458 -0.731676,1.513812 -2.043646,2.346408 -1.31197,0.832597 -3.103315,0.832597 z m -1.059668,-3.027624 q 1.337201,0 2.169797,-0.958748 0.832597,-0.958747 0.832597,-2.724861 0,-1.766114 -0.857827,-2.699632 -0.832597,-0.933517 -2.195027,-0.933517 -1.311971,0 -2.169798,0.958748 -0.832596,0.933517 -0.832596,2.699631 0,1.766114 0.832596,2.724862 0.857827,0.933517 2.220258,0.933517 z m 15.34898,3.027624 q -2.144567,0 -3.734069,-0.832597 -1.589503,-0.857827 -2.47256,-2.371638 -0.857827,-1.513812 -0.857827,-3.481768 0,-1.993186 0.857827,-3.481768 0.883057,-1.513812 2.44733,-2.346408 1.564272,-0.857827 3.633148,-0.857827 1.993186,0 3.456538,0.807366 1.463351,0.807367 2.270718,2.245488 0.807366,1.438122 0.807366,3.380847 0,0.403683 -0.02523,0.756906 -0.02523,0.327993 -0.07569,0.630755 H 64.526423 v -2.49779 h 8.098894 l -0.655985,0.454144 q 0,-1.564273 -0.756906,-2.295948 -0.731676,-0.756906 -2.018416,-0.756906 -1.488582,0 -2.321178,1.009208 -0.807367,1.009208 -0.807367,3.027624 0,1.967955 0.807367,2.926703 0.832596,0.958747 2.472559,0.958747 0.908287,0 1.564272,-0.302762 0.655986,-0.302762 0.983978,-0.983978 h 3.557458 q -0.630755,1.867035 -2.169797,2.951933 -1.513812,1.059669 -3.910681,1.059669 z m 8.410653,-0.252302 V 71.781813 h 3.708839 v 3.027624 h 0.07569 v 9.839778 z m 3.78453,-6.711233 -0.327993,-3.052854 q 0.454144,-1.639963 1.488582,-2.49779 1.034438,-0.857827 2.57348,-0.857827 0.479374,0 0.706446,0.100921 v 3.532228 q -0.126151,-0.05046 -0.353223,-0.05046 -0.227072,-0.02523 -0.555064,-0.02523 -1.816575,0 -2.674401,0.655985 -0.857827,0.630755 -0.857827,2.195028 z m 12.094307,6.963535 q -2.144567,0 -3.73407,-0.832597 -1.589502,-0.857827 -2.472559,-2.371638 -0.857827,-1.513812 -0.857827,-3.481768 0,-1.993186 0.857827,-3.481768 0.883057,-1.513812 2.447329,-2.346408 1.564273,-0.857827 3.633149,-0.857827 1.993186,0 3.456537,0.807366 1.463352,0.807367 2.270718,2.245488 0.807365,1.438122 0.807365,3.380847 0,0.403683 -0.0252,0.756906 -0.0252,0.327993 -0.07569,0.630755 H 88.815913 v -2.49779 h 8.098894 l -0.655985,0.454144 q 0,-1.564273 -0.756906,-2.295948 -0.731676,-0.756906 -2.018416,-0.756906 -1.488582,0 -2.321179,1.009208 -0.807366,1.009208 -0.807366,3.027624 0,1.967955 0.807366,2.926703 0.832597,0.958747 2.47256,0.958747 0.908287,0 1.564272,-0.302762 0.655985,-0.302762 0.983978,-0.983978 h 3.557458 q -0.630755,1.867035 -2.169797,2.951933 -1.513812,1.059669 -3.910681,1.059669 z m 14.491129,0 q -2.01841,0 -3.55745,-0.857827 -1.53905,-0.857827 -2.4221,-2.371639 -0.85783,-1.513812 -0.85783,-3.456537 0,-1.942725 0.85783,-3.456537 0.88305,-1.513812 2.4221,-2.371639 1.53904,-0.857827 3.55745,-0.857827 1.69043,0 3.02763,0.630755 1.36243,0.605525 2.22026,1.690423 0.88305,1.084899 1.13535,2.548251 h -3.65837 q -0.27754,-0.933518 -1.00921,-1.412892 -0.70645,-0.479373 -1.6652,-0.479373 -0.90828,0 -1.5895,0.454143 -0.65598,0.454144 -1.00921,1.28674 -0.35322,0.832597 -0.35322,1.967956 0,1.135359 0.35322,1.967956 0.35323,0.832596 1.00921,1.28674 0.68122,0.454143 1.5895,0.454143 0.95875,0 1.6652,-0.479373 0.73167,-0.479374 1.00921,-1.412892 h 3.65837 q -0.2523,1.463352 -1.13535,2.54825 -0.85783,1.084899 -2.22026,1.715654 -1.3372,0.605525 -3.02763,0.605525 z"
         id="path2" />
    </g>
  </g>
</svg>
