<?xml version="1.0" encoding="UTF-8" standalone="no"?>

<svg
   height="24"
   viewBox="0 0 101 18"
   version="1.1"
   id="svg1"
   xmlns="http://www.w3.org/2000/svg">
  <g
     id="layer1"
     transform="translate(-63.79529,-96.528744)">
    <path
       id="path1-7-2"
       fill="#ff2a7f"
       style="fill-opacity:1;stroke-width:0.751604;stroke-dasharray:none"
       d="m 65.402975,105.17165 a 5.7175443,4.8885414 0 0 0 0.135963,6.91326 5.7175443,4.8885414 0 0 0 8.084431,-0.11711 5.7175443,4.8885414 0 0 0 0.212889,-0.21848 l 0.01784,0.0158 7.326331,-6.47828 a 9.8572369,8.4268337 0.57829204 0 0 2.985706,5.71684 9.8572369,8.4268337 0.57829204 0 0 13.938647,-0.18118 9.8572369,8.4268337 0.57829204 0 0 -0.257895,-11.916002 9.8572369,8.4268337 0.57829204 0 0 -13.936405,0.181187 9.8572369,8.4268337 0.57829204 0 0 -0.55886,0.570463 l -8.405264,7.432352 a 5.7175443,4.8885414 0 0 0 -1.459787,-2.03361 5.7175443,4.8885414 0 0 0 -8.084501,0.11526 z m 2.134687,1.76484 a 2.7479669,2.3495314 0 0 1 3.885725,-0.0549 2.7479669,2.3495314 0 0 1 0.349983,3.01501 l -0.08601,0.0761 0.0089,0.008 a 2.7479669,2.3495314 0 0 1 -0.207829,0.22294 2.7479669,2.3495314 0 0 1 -3.885662,0.0568 2.7479669,2.3495314 0 0 1 -0.06533,-3.3233 z m 18.535333,-5.97539 0.101467,-0.0898 a 5.8416383,6.8320115 88.328545 0 1 9.603804,-0.13524 5.8416383,6.8320115 88.328545 0 1 0.119773,8.26082 5.8416383,6.8320115 88.328545 0 1 -9.661347,0.17619 5.8416383,6.8320115 88.328545 0 1 -0.163718,-8.21217 z" />
    <path
       fill="#fafafa"
       style="font-weight:bold;font-size:22.5778px;font-family:'Instrument Sans';-inkscape-font-specification:'Instrument Sans Bold';letter-spacing:-0.015875px;fill-opacity:0.995736;stroke:#fdfdfd;stroke-width:0;stroke-linejoin:round"
       d="M 104.4371,113.34621 V 97.09019 h 7.72161 q 1.80622,0 3.09316,0.632179 1.30951,0.632178 2.00942,1.761068 0.72249,1.128893 0.72249,2.641603 0,1.51271 -0.72249,2.66418 -0.72249,1.15147 -2.032,1.80622 -1.28693,0.63218 -3.07058,0.63218 h -4.96712 v -2.66418 h 4.7865 q 1.19662,0 1.85138,-0.65475 0.67733,-0.67734 0.67733,-1.76107 0,-1.08374 -0.67733,-1.73849 -0.65476,-0.654759 -1.85138,-0.654759 h -4.06401 v 13.591839 z m 15.38221,0 v -11.51468 h 3.31893 v 2.70933 h 0.0677 v 8.80535 z m 3.38667,-6.0057 -0.29351,-2.73191 q 0.4064,-1.46756 1.33209,-2.2352 0.92569,-0.76765 2.30293,-0.76765 0.42898,0 0.63218,0.0903 v 3.16089 q -0.11289,-0.0451 -0.31609,-0.0451 -0.2032,-0.0226 -0.49671,-0.0226 -1.6256,0 -2.39325,0.58702 -0.76764,0.56445 -0.76764,1.96427 z m 12.40195,6.0057 q -0.13547,-0.49671 -0.2032,-1.06116 -0.0452,-0.56444 -0.0452,-1.30951 h -0.0903 v -5.44125 q 0,-0.69991 -0.47413,-1.08374 -0.45156,-0.4064 -1.35467,-0.4064 -0.85796,0 -1.37725,0.29351 -0.49671,0.29352 -0.65475,0.85796 h -3.22863 q 0.22578,-1.55787 1.60303,-2.57387 1.37724,-1.016 3.77049,-1.016 2.48356,0 3.79307,1.10631 1.30951,1.10631 1.30951,3.18347 v 5.08001 q 0,0.56444 0.0677,1.15147 0.0903,0.56444 0.27093,1.2192 z m -4.01885,0.22577 q -1.71591,0 -2.73191,-0.85795 -1.016,-0.88054 -1.016,-2.32552 0,-1.60302 1.19662,-2.57386 1.2192,-0.99343 3.38667,-1.28694 l 3.36409,-0.47413 v 1.96427 l -2.79965,0.42897 q -0.90311,0.13547 -1.33209,0.49672 -0.42897,0.36124 -0.42897,0.99342 0,0.56444 0.4064,0.85796 0.4064,0.29351 1.08373,0.29351 1.06116,0 1.80622,-0.56445 0.74507,-0.58702 0.74507,-1.35467 l 0.31609,1.80623 q -0.49671,1.28693 -1.51271,1.94169 -1.016,0.65475 -2.48356,0.65475 z m 16.87228,-0.22577 -3.40925,-5.05743 -4.89938,-6.45725 h 3.79307 l 3.048,4.53814 5.26063,6.97654 z m -3.13831,-7.15717 3.048,-4.35751 h 3.70276 l -5.14774,6.72818 z m 1.30951,2.5513 -3.27378,4.60587 h -3.68018 l 5.35094,-6.97654 z m 11.95037,4.83164 q -1.91912,0 -3.34152,-0.74506 -1.4224,-0.76765 -2.21262,-2.12232 -0.76765,-1.35466 -0.76765,-3.11573 0,-1.78365 0.76765,-3.11574 0.79022,-1.35467 2.19004,-2.09973 1.39983,-0.76765 3.25121,-0.76765 1.78364,0 3.09316,0.72249 1.30951,0.72249 2.032,2.00942 0.72249,1.28694 0.72249,3.02543 0,0.36124 -0.0226,0.67733 -0.0226,0.29351 -0.0677,0.56445 H 154.248 v -2.2352 h 7.24747 l -0.58702,0.4064 q 0,-1.39983 -0.67733,-2.05458 -0.65476,-0.67734 -1.80623,-0.67734 -1.33209,0 -2.07716,0.90311 -0.72249,0.90312 -0.72249,2.70934 0,1.76107 0.72249,2.61903 0.74507,0.85795 2.21263,0.85795 0.8128,0 1.39982,-0.27093 0.58702,-0.27094 0.88054,-0.88054 h 3.18347 q -0.56445,1.67076 -1.9417,2.64161 -1.35466,0.94826 -3.49955,0.94826 z"
       id="text1"
       aria-label="Praxe" />
  </g>
</svg>
